{"asset":{"version":"2.0","generator":"babylon.js glTF exporter for 3ds max 2018 v1.3.33"},"extensionsUsed":["KHR_texture_transform"],"extensionsRequired":["KHR_texture_transform"],"scene":0,"scenes":[{"nodes":[0,1],"extensions":{}}],"nodes":[{"mesh":0,"translation":[-1.19824147,0.0,1.19824147],"rotation":[0.0,0.0,0.0,1.0],"scale":[1.0,1.0,1.0],"name":"Sphere001"},{"translation":[0.0,0.0,0.0],"rotation":[0.0,0.0,0.0,1.0],"scale":[1.0,1.0,1.0],"name":"Default light"}],"meshes":[{"primitives":[{"attributes":{"POSITION":1,"NORMAL":2,"TEXCOORD_0":3},"indices":0,"mode":4,"material":0}],"name":"Sphere001"}],"accessors":[{"bufferView":0,"componentType":5123,"count":2880,"type":"SCALAR","name":"accessorIndices"},{"bufferView":1,"componentType":5126,"count":2880,"max":[30.11113,30.11113,30.11113],"min":[-30.11113,-30.11113,-30.11113],"type":"VEC3","name":"accessorPositions"},{"bufferView":1,"byteOffset":34560,"componentType":5126,"count":2880,"type":"VEC3","name":"accessorNormals"},{"bufferView":2,"componentType":5126,"count":2880,"type":"VEC2","name":"accessorUVs"},{"bufferView":3,"componentType":5126,"count":58,"max":[3.33333325],"min":[0.0],"type":"SCALAR","name":"accessorAnimationInput"},{"bufferView":4,"componentType":5126,"count":58,"type":"VEC4","name":"accessorAnimationRotations"}],"bufferViews":[{"buffer":0,"byteLength":5760,"name":"bufferViewScalar"},{"buffer":0,"byteOffset":5760,"byteLength":69120,"byteStride":12,"name":"bufferViewFloatVec3"},{"buffer":0,"byteOffset":74880,"byteLength":23040,"byteStride":8,"name":"bufferViewFloatVec2"},{"buffer":0,"byteOffset":97920,"byteLength":232,"name":"bufferViewAnimationFloatScalar"},{"buffer":0,"byteOffset":98152,"byteLength":928,"name":"bufferViewAnimationFloatVec4"}],"buffers":[{"uri":"palla.bin","byteLength":99080}],"materials":[{"pbrMetallicRoughness":{"baseColorFactor":[0.07058824,0.07058824,0.07058824,1.0],"baseColorTexture":{"index":0,"texCoord":0,"extensions":{"KHR_texture_transform":{"offset":[0.496310949,-0.4958346],"scale":[0.00737810135,0.008330819],"texCoord":0}}},"metallicFactor":0.0,"roughnessFactor":0.630481},"emissiveFactor":[0.0,0.0,0.0],"alphaMode":"OPAQUE","name":"Material #25"}],"textures":[{"sampler":0,"source":0,"name":"palla.jpg"}],"images":[{"uri":"palla.jpg"}],"samplers":[{"magFilter":9729,"minFilter":9987,"wrapS":10497,"wrapT":10497}],"animations":[{"channels":[{"sampler":0,"target":{"node":0,"path":"rotation"}}],"samplers":[{"input":4,"interpolation":"LINEAR","output":5}],"name":"Animation"}]}