{"accessors":[{"name":"Line001_1_positions","componentType":5126,"count":1304,"min":[-6.366818904876709,-0.24352900683879852,-1.2146070003509521],"max":[6.368454933166504,0.24925699830055237,1.2072279453277588],"type":"VEC3","bufferView":0,"byteOffset":0},{"name":"Line001_1_normals","componentType":5126,"count":1304,"min":[-1,-0.999646008014679,-0.9986289739608765],"max":[0.9999529719352722,0.9996449947357178,0.9986289739608765],"type":"VEC3","bufferView":0,"byteOffset":53172},{"name":"Line001_1_0_indices","componentType":5123,"count":5406,"min":[0],"max":[1303],"type":"SCALAR","bufferView":1,"byteOffset":0},{"name":"Object001_1_positions","componentType":5126,"count":1571,"min":[-6.171568870544434,-0.2551659941673279,-1.0082069635391235],"max":[6.172941207885742,0.0657379999756813,1.0105780363082886],"type":"VEC3","bufferView":0,"byteOffset":15648},{"name":"Object001_1_normals","componentType":5126,"count":1571,"min":[-0.5322480201721191,-0.9999529719352722,-0.4998370110988617],"max":[0.5300700068473816,-0.8249989748001099,0.5628830194473267],"type":"VEC3","bufferView":0,"byteOffset":68820},{"name":"Object001_1_0_indices","componentType":5123,"count":2223,"min":[0],"max":[1570],"type":"SCALAR","bufferView":1,"byteOffset":10812},{"name":"Object_1_positions","componentType":5126,"count":1556,"min":[-6.428192138671875,-0.16587400436401367,-1.280837059020996],"max":[6.444942951202393,0.17160199582576752,1.2725449800491333],"type":"VEC3","bufferView":0,"byteOffset":34500},{"name":"Object_1_normals","componentType":5126,"count":1556,"min":[-1,-0.9995949864387512,-0.9986289739608765],"max":[0.9999529719352722,0.9996849894523621,0.9986289739608765],"type":"VEC3","bufferView":0,"byteOffset":87672},{"name":"Object_1_0_indices","componentType":5123,"count":2772,"min":[0],"max":[1555],"type":"SCALAR","bufferView":1,"byteOffset":15260}],"asset":{"generator":"obj2gltf","version":"2.0"},"buffers":[{"name":"topolino2","byteLength":127148,"uri":"data:application/octet-stream;base64,"}],"bufferViews":[{"name":"bufferView_0","buffer":0,"byteLength":106344,"byteOffset":0,"byteStride":12,"target":34962},{"name":"bufferView_1","buffer":0,"byteLength":20804,"byteOffset":106344,"target":34963}],"materials":[{"name":"Material__26","pbrMetallicRoughness":{"baseColorFactor":[0,0,0,1],"metallicFactor":0,"roughnessFactor":0.9400000040000001},"emissiveFactor":[0,0,0],"alphaMode":"OPAQUE","doubleSided":false},{"name":"wire_088144225","pbrMetallicRoughness":{"baseColorFactor":[0.345098,0.564706,0.882353,1],"metallicFactor":0,"roughnessFactor":0.968},"emissiveFactor":[0,0,0],"alphaMode":"OPAQUE","doubleSided":false}],"meshes":[{"name":"Line001_1","primitives":[{"attributes":{"POSITION":0,"NORMAL":1},"indices":2,"material":0,"mode":4}]},{"name":"Object001_1","primitives":[{"attributes":{"POSITION":3,"NORMAL":4},"indices":5,"material":1,"mode":4}]},{"name":"Object_1","primitives":[{"attributes":{"POSITION":6,"NORMAL":7},"indices":8,"material":1,"mode":4}]}],"nodes":[{"name":"Line001","mesh":0},{"name":"Object001","mesh":1},{"name":"Object","mesh":2}],"scene":0,"scenes":[{"nodes":[0,1,2]}]}
