{"accessors":[{"name":"Line001_1_positions","componentType":5126,"count":996,"min":[-6.366818904876709,-0.24352900683879852,-1.2146070003509521],"max":[6.368454933166504,0.24925699830055237,1.2072279453277588],"type":"VEC3","bufferView":0,"byteOffset":0},{"name":"Line001_1_normals","componentType":5126,"count":996,"min":[-0.8051360249519348,-0.999646008014679,-0.8444589972496033],"max":[0.8044270277023315,0.9996449947357178,0.8565019965171814],"type":"VEC3","bufferView":0,"byteOffset":30804},{"name":"Line001_1_0_indices","componentType":5123,"count":4482,"min":[0],"max":[995],"type":"SCALAR","bufferView":1,"byteOffset":0},{"name":"Object001_1_positions","componentType":5126,"count":1571,"min":[-6.171568870544434,-0.2551659941673279,-1.0082069635391235],"max":[6.172941207885742,0.0657379999756813,1.0105780363082886],"type":"VEC3","bufferView":0,"byteOffset":11952},{"name":"Object001_1_normals","componentType":5126,"count":1571,"min":[-0.5322480201721191,-0.9999529719352722,-0.4998370110988617],"max":[0.5300700068473816,-0.8249989748001099,0.5628830194473267],"type":"VEC3","bufferView":0,"byteOffset":42756},{"name":"Object001_1_0_indices","componentType":5123,"count":2223,"min":[0],"max":[1570],"type":"SCALAR","bufferView":1,"byteOffset":8964}],"asset":{"generator":"obj2gltf","version":"2.0"},"buffers":[{"name":"topolino","byteLength":75020,"uri":"data:application/octet-stream;base64,"}],"bufferViews":[{"name":"bufferView_0","buffer":0,"byteLength":61608,"byteOffset":0,"byteStride":12,"target":34962},{"name":"bufferView_1","buffer":0,"byteLength":13412,"byteOffset":61608,"target":34963}],"materials":[{"name":"Material__26","pbrMetallicRoughness":{"baseColorFactor":[0,0,0,1],"metallicFactor":0,"roughnessFactor":0.9400000040000001},"emissiveFactor":[0,0,0],"alphaMode":"OPAQUE","doubleSided":false},{"name":"Material__29","pbrMetallicRoughness":{"baseColorFactor":[0.992157,0,0,1],"metallicFactor":0,"roughnessFactor":0.9400000040000001},"emissiveFactor":[0,0,0],"alphaMode":"OPAQUE","doubleSided":false}],"meshes":[{"name":"Line001_1","primitives":[{"attributes":{"POSITION":0,"NORMAL":1},"indices":2,"material":0,"mode":4}]},{"name":"Object001_1","primitives":[{"attributes":{"POSITION":3,"NORMAL":4},"indices":5,"material":1,"mode":4}]}],"nodes":[{"name":"Line001","mesh":0},{"name":"Object001","mesh":1}],"scene":0,"scenes":[{"nodes":[0,1]}]}
